# xmcd
#
# Track frame offsets:
#	150
#	9723
#	20583
#	34576
#	47391
#	59496
#	75504
#	87391
#	98501
#	109596
#	121758
#	133296
#	144613
#	156711
#	169193
#	186778
#	198436
#	212023
#	224648
#	233473
#	245301
#	256731
#	269606
#	278966
#	295313
#	308976
#	329823
#	342323
#
# Disc length: 4747 seconds
#
# Revision: 0
# Processed by: cddbd v1.5.1PL0 Copyright (c) Steve Scherf et al.
# Submitted via: dBpowerAMP V4.0
#
DISCID=a512891c
DTITLE=Brenda Lee - Greatest Hits
DYEAR=1960
DGENRE=Country
TTITLE0=Rockin' Around The Christmas Tree
TTITLE1=Bill Bailey, won't You Please Come Home
TTITLE2=I Wan't To Be Wanted
TTITLE3=Emotions
TTITLE4=If You Love Me
TTITLE5=You Can Depend On Me
TTITLE6=Kansas City
TTITLE7=Dum Dum
TTITLE8=Fool #1
TTITLE9=Brake It To Me Gently
TTITLE10=Everybody Loves Me But On
TTITLE11=Heart In Hand
TTITLE12=Someday You'ii Want Me To Want You
TTITLE13=All Alone Am I
TTITLE14=My Coloring Book
TTITLE15=Losing You
TTITLE16=I Wonder
TTITLE17=The Grass Is Grener
TTITLE18=My Whole World Is Falling Down
TTITLE19=As Asual
TTITLE20=Is It True?
TTITLE21=Too Many Rivers
TTITLE22=Coming On Strong
TTITLE23=Johny One Time
TTITLE24=Nobody Wins
TTITLE25=Big Four Poster Bed
TTITLE26=Rock On Baby
TTITLE27=Tell Me What it's Like
EXTD=
EXTT0=
EXTT1=
EXTT2=
EXTT3=
EXTT4=
EXTT5=
EXTT6=
EXTT7=
EXTT8=
EXTT9=
EXTT10=
EXTT11=
EXTT12=
EXTT13=
EXTT14=
EXTT15=
EXTT16=
EXTT17=
EXTT18=
EXTT19=
EXTT20=
EXTT21=
EXTT22=
EXTT23=
EXTT24=
EXTT25=
EXTT26=
EXTT27=
PLAYORDER=
